<svg xmlns="http://www.w3.org/2000/svg" viewBox="-194.88498718261718 56.36000061035156 964.7699584960938 451.38999977111814"> <svg xmlns="http://www.w3.org/2000/svg" xmlns:xlink="http://www.w3.org/1999/xlink" xmlnsSerif="http://www.serif.com/" viewBox="173.66616821289062 75.1671371459961 1652.6663818359375 1849.6634521484375" version="1.1" xml:space="preserve" height="214.9954833984375" width="192.09756289796366" y="126.36000061035156" x="191.451" preserveAspectRatio="xMinYMin" fill-rule="evenodd" clip-rule="evenodd" stroke-linejoin="round" stroke-miterlimit="2" style="overflow: visible;"><path transform="matrix(2.20471,0,0,2.20471,-647.407,-185.531)" d="M746.696,439.582C746.146,439.582 745.65,439.914 745.439,440.422C739.152,455.602 649.66,671.671 640.362,694.121C640.188,694.541 640.236,695.02 640.488,695.398C640.741,695.775 641.165,696.002 641.62,696.002C655.459,696.002 735.441,696.002 744.878,696.002C745.428,696.002 745.924,696.334 746.135,696.842C750.158,706.558 787.824,797.53 793.735,811.806C793.909,812.226 793.862,812.705 793.609,813.083C793.357,813.461 792.933,813.688 792.478,813.688C772.055,813.688 604.585,813.688 590.74,813.688C590.189,813.688 589.693,814.02 589.482,814.528C584.854,825.726 535.485,945.168 530.857,956.365C530.646,956.874 530.15,957.206 529.599,957.206C517.644,957.206 391.624,957.206 373.779,957.206C373.318,957.206 372.888,956.973 372.637,956.586C372.386,956.2 372.348,955.712 372.536,955.291C391.572,912.611 722.647,170.297 745.503,119.052C745.721,118.562 746.208,118.246 746.745,118.246C747.282,118.246 747.768,118.561 747.987,119.051C761.414,149.078 879.236,412.578 890.454,437.666C890.642,438.087 890.604,438.575 890.353,438.962C890.103,439.349 889.673,439.582 889.212,439.582C872.259,439.582 758.053,439.582 746.696,439.582Z" style="fill: #FFFFFF; fill-opacity: 1;"></path><path transform="matrix(2.20471,0,0,2.20471,-647.407,-185.531)" d="M900.489,462.082C901.026,462.082 901.512,462.398 901.731,462.888C906.631,473.845 960.002,593.204 967.432,609.822C967.62,610.243 967.582,610.73 967.332,611.117C967.081,611.504 966.651,611.738 966.19,611.738L817.977,611.738C817.427,611.738 816.93,611.406 816.72,610.898C812.09,599.717 762.7,480.431 755.882,463.964C755.708,463.544 755.755,463.065 756.008,462.687C756.26,462.309 756.685,462.082 757.139,462.082C773.934,462.082 889.242,462.082 900.489,462.082Z" style="fill: #E37627; fill-opacity: 1;"></path><path transform="matrix(2.20471,0,0,2.20471,-647.407,-185.531)" d="M977.467,634.238C978.004,634.238 978.491,634.553 978.71,635.043C983.616,646.015 1037.12,765.682 1044.56,782.322C1044.75,782.743 1044.71,783.23 1044.46,783.617C1044.21,784.004 1043.78,784.238 1043.32,784.238C1025.59,784.238 901.268,784.238 889.4,784.238C888.85,784.238 888.354,783.906 888.143,783.398C883.507,772.202 833.99,652.609 827.163,636.119C826.989,635.699 827.036,635.22 827.288,634.843C827.541,634.465 827.965,634.238 828.42,634.238C845.599,634.238 965.967,634.238 977.467,634.238Z" style="fill: #FC832B; fill-opacity: 1;"></path><path transform="matrix(2.20471,0,0,2.20471,-647.407,-185.531)" d="M1054.6,806.738C1055.14,806.738 1055.62,807.053 1055.84,807.543C1060.76,818.535 1114.45,938.619 1121.91,955.29C1122.09,955.711 1122.06,956.199 1121.81,956.586C1121.55,956.973 1121.12,957.206 1120.66,957.206C1102.56,957.206 973.134,957.206 961.017,957.206C960.467,957.206 959.971,956.875 959.76,956.366C955.116,945.15 905.426,825.139 898.586,808.619C898.412,808.199 898.459,807.72 898.712,807.343C898.964,806.965 899.389,806.738 899.843,806.738C917.4,806.738 1042.85,806.738 1054.6,806.738Z" style="fill: #FD964B; fill-opacity: 1;"></path></svg> <svg y="420.7199996948242" viewBox="0.07000000774860382 3.9800000190734863 302.0199890136719 17.030000686645508" x="136.49000061035156" height="17.030000686645508" width="302.0199890136719" style="overflow: visible;"><g fill="#E37627" fill-opacity="1" style=""><path d="M5.83 17.42L4.50 17.42L4.50 5.98L0.07 5.98L0.07 4.82L10.26 4.82L10.26 5.98L5.83 5.98L5.83 17.42ZM17.84 7.88L17.84 7.88Q18.99 7.88 19.86 8.33Q20.74 8.77 21.23 9.67Q21.73 10.57 21.73 11.93L21.73 11.93L21.73 17.42L20.45 17.42L20.45 12.06Q20.45 10.57 19.70 9.80Q18.95 9.04 17.60 9.04L17.60 9.04Q16.60 9.04 15.85 9.44Q15.10 9.85 14.70 10.61Q14.29 11.38 14.29 12.46L14.29 12.46L14.29 17.42L13.01 17.42L13.01 4.07L14.29 4.07L14.29 10.57L14.04 10.08Q14.49 9.05 15.48 8.47Q16.47 7.88 17.84 7.88ZM30.10 17.51L30.10 17.51Q28.62 17.51 27.50 16.89Q26.39 16.27 25.76 15.18Q25.13 14.09 25.13 12.69L25.13 12.69Q25.13 11.29 25.73 10.21Q26.33 9.13 27.39 8.51Q28.44 7.88 29.75 7.88L29.75 7.88Q31.09 7.88 32.12 8.49Q33.16 9.09 33.75 10.18Q34.34 11.27 34.34 12.69L34.34 12.69Q34.34 12.78 34.34 12.88Q34.33 12.98 34.33 13.09L34.33 13.09L26.10 13.09L26.10 12.13L33.64 12.13L33.14 12.51Q33.14 11.48 32.70 10.68Q32.26 9.88 31.50 9.43Q30.74 8.98 29.75 8.98L29.75 8.98Q28.78 8.98 28.01 9.43Q27.23 9.88 26.80 10.69Q26.37 11.50 26.37 12.55L26.37 12.55L26.37 12.74Q26.37 13.82 26.85 14.64Q27.32 15.46 28.18 15.92Q29.03 16.38 30.13 16.38L30.13 16.38Q31.00 16.38 31.74 16.07Q32.49 15.77 33.03 15.14L33.03 15.14L33.75 15.97Q33.12 16.72 32.18 17.12Q31.23 17.51 30.10 17.51ZM44.75 17.42L43.47 17.42L43.47 7.97L44.69 7.97L44.69 10.55L44.57 10.10Q44.96 9.02 45.90 8.45Q46.84 7.88 48.22 7.88L48.22 7.88L48.22 9.13Q48.15 9.13 48.08 9.12Q48.01 9.11 47.93 9.11L47.93 9.11Q46.44 9.11 45.59 10.02Q44.75 10.93 44.75 12.60L44.75 12.60L44.75 17.42ZM52.87 17.42L51.59 17.42L51.59 7.97L52.87 7.97L52.87 17.42ZM52.24 5.89L52.24 5.89Q51.84 5.89 51.57 5.62Q51.30 5.35 51.30 4.97L51.30 4.97Q51.30 4.59 51.57 4.33Q51.84 4.07 52.24 4.07L52.24 4.07Q52.63 4.07 52.90 4.32Q53.17 4.57 53.17 4.95L53.17 4.95Q53.17 5.35 52.91 5.62Q52.65 5.89 52.24 5.89ZM61.36 21.01L61.36 21.01Q60.07 21.01 58.88 20.63Q57.69 20.25 56.95 19.55L56.95 19.55L57.60 18.58Q58.27 19.17 59.25 19.52Q60.23 19.87 61.33 19.87L61.33 19.87Q63.13 19.87 63.97 19.04Q64.82 18.20 64.82 16.43L64.82 16.43L64.82 14.08L65.00 12.46L64.87 10.84L64.87 7.97L66.10 7.97L66.10 16.27Q66.10 18.72 64.90 19.86Q63.70 21.01 61.36 21.01ZM61.13 17.06L61.13 17.06Q59.78 17.06 58.70 16.48Q57.62 15.89 57.00 14.85Q56.38 13.81 56.38 12.46L56.38 12.46Q56.38 11.11 57.00 10.07Q57.62 9.04 58.70 8.46Q59.78 7.88 61.13 7.88L61.13 7.88Q62.39 7.88 63.40 8.41Q64.40 8.93 65.00 9.95Q65.59 10.98 65.59 12.46L65.59 12.46Q65.59 13.93 65.00 14.96Q64.40 15.98 63.40 16.52Q62.39 17.06 61.13 17.06ZM61.25 15.93L61.25 15.93Q62.30 15.93 63.11 15.49Q63.92 15.05 64.39 14.27Q64.85 13.48 64.85 12.46L64.85 12.46Q64.85 11.43 64.39 10.66Q63.92 9.88 63.11 9.44Q62.30 9.00 61.25 9.00L61.25 9.00Q60.23 9.00 59.41 9.44Q58.59 9.88 58.13 10.66Q57.67 11.43 57.67 12.46L57.67 12.46Q57.67 13.48 58.13 14.27Q58.59 15.05 59.41 15.49Q60.23 15.93 61.25 15.93ZM75.38 7.88L75.38 7.88Q76.54 7.88 77.41 8.33Q78.28 8.77 78.78 9.67Q79.27 10.57 79.27 11.93L79.27 11.93L79.27 17.42L77.99 17.42L77.99 12.06Q77.99 10.57 77.25 9.80Q76.50 9.04 75.15 9.04L75.15 9.04Q74.14 9.04 73.40 9.44Q72.65 9.85 72.24 10.61Q71.84 11.38 71.84 12.46L71.84 12.46L71.84 17.42L70.56 17.42L70.56 4.07L71.84 4.07L71.84 10.57L71.59 10.08Q72.04 9.05 73.03 8.47Q74.02 7.88 75.38 7.88ZM86.62 17.51L86.62 17.51Q85.28 17.51 84.56 16.79Q83.84 16.07 83.84 14.76L83.84 14.76L83.84 5.89L85.12 5.89L85.12 14.69Q85.12 15.52 85.55 15.97Q85.97 16.42 86.76 16.42L86.76 16.42Q87.61 16.42 88.16 15.93L88.16 15.93L88.61 16.85Q88.24 17.19 87.71 17.35Q87.17 17.51 86.62 17.51ZM88.00 9.04L82.15 9.04L82.15 7.97L88.00 7.97L88.00 9.04ZM102.33 17.51L102.33 17.51Q101.09 17.51 100.10 16.95Q99.11 16.38 98.53 15.30Q97.96 14.22 97.96 12.69L97.96 12.69Q97.96 11.14 98.54 10.07Q99.13 9.00 100.12 8.44Q101.11 7.88 102.33 7.88L102.33 7.88Q103.68 7.88 104.75 8.49Q105.82 9.09 106.43 10.17Q107.05 11.25 107.05 12.69L107.05 12.69Q107.05 14.11 106.43 15.20Q105.82 16.29 104.75 16.90Q103.68 17.51 102.33 17.51ZM98.68 17.42L97.45 17.42L97.45 4.07L98.73 4.07L98.73 10.76L98.55 12.67L98.68 14.58L98.68 17.42ZM102.24 16.38L102.24 16.38Q103.25 16.38 104.04 15.92Q104.83 15.46 105.30 14.63Q105.77 13.79 105.77 12.69L105.77 12.69Q105.77 11.57 105.30 10.75Q104.83 9.92 104.04 9.46Q103.25 9.00 102.24 9.00L102.24 9.00Q101.23 9.00 100.43 9.46Q99.63 9.92 99.17 10.75Q98.71 11.57 98.71 12.69L98.71 12.69Q98.71 13.79 99.17 14.63Q99.63 15.46 100.43 15.92Q101.23 16.38 102.24 16.38ZM114.41 17.51L114.41 17.51Q113.04 17.51 111.95 16.89Q110.86 16.27 110.23 15.18Q109.60 14.09 109.60 12.69L109.60 12.69Q109.60 11.27 110.23 10.19Q110.86 9.11 111.94 8.50Q113.02 7.88 114.41 7.88L114.41 7.88Q115.81 7.88 116.90 8.50Q117.99 9.11 118.61 10.19Q119.23 11.27 119.23 12.69L119.23 12.69Q119.23 14.09 118.61 15.18Q117.99 16.27 116.89 16.89Q115.79 17.51 114.41 17.51ZM114.41 16.38L114.41 16.38Q115.43 16.38 116.23 15.92Q117.02 15.46 117.48 14.63Q117.94 13.79 117.94 12.69L117.94 12.69Q117.94 11.57 117.48 10.75Q117.02 9.92 116.23 9.46Q115.43 9.00 114.43 9.00L114.43 9.00Q113.42 9.00 112.63 9.46Q111.83 9.92 111.37 10.75Q110.90 11.57 110.90 12.69L110.90 12.69Q110.90 13.79 111.37 14.63Q111.83 15.46 112.63 15.92Q113.42 16.38 114.41 16.38ZM125.73 17.51L125.73 17.51Q124.40 17.51 123.68 16.79Q122.96 16.07 122.96 14.76L122.96 14.76L122.96 5.89L124.24 5.89L124.24 14.69Q124.24 15.52 124.66 15.97Q125.08 16.42 125.87 16.42L125.87 16.42Q126.72 16.42 127.28 15.93L127.28 15.93L127.73 16.85Q127.35 17.19 126.82 17.35Q126.29 17.51 125.73 17.51ZM127.12 9.04L121.27 9.04L121.27 7.97L127.12 7.97L127.12 9.04ZM138.06 17.42L136.78 17.42L136.78 6.79Q136.78 5.53 137.52 4.75Q138.26 3.98 139.64 3.98L139.64 3.98Q140.18 3.98 140.69 4.12Q141.19 4.27 141.53 4.57L141.53 4.57L141.10 5.53Q140.83 5.29 140.47 5.18Q140.11 5.06 139.70 5.06L139.70 5.06Q138.89 5.06 138.46 5.51Q138.02 5.96 138.02 6.84L138.02 6.84L138.02 8.28L138.06 8.87L138.06 17.42ZM140.94 9.04L135.09 9.04L135.09 7.97L140.94 7.97L140.94 9.04ZM147.42 17.51L147.42 17.51Q146.05 17.51 144.96 16.89Q143.87 16.27 143.24 15.18Q142.61 14.09 142.61 12.69L142.61 12.69Q142.61 11.27 143.24 10.19Q143.87 9.11 144.95 8.50Q146.03 7.88 147.42 7.88L147.42 7.88Q148.82 7.88 149.91 8.50Q151.00 9.11 151.62 10.19Q152.24 11.27 152.24 12.69L152.24 12.69Q152.24 14.09 151.62 15.18Q151.00 16.27 149.90 16.89Q148.81 17.51 147.42 17.51ZM147.42 16.38L147.42 16.38Q148.45 16.38 149.24 15.92Q150.03 15.46 150.49 14.63Q150.95 13.79 150.95 12.69L150.95 12.69Q150.95 11.57 150.49 10.75Q150.03 9.92 149.24 9.46Q148.45 9.00 147.44 9.00L147.44 9.00Q146.43 9.00 145.64 9.46Q144.85 9.92 144.38 10.75Q143.91 11.57 143.91 12.69L143.91 12.69Q143.91 13.79 144.38 14.63Q144.85 15.46 145.64 15.92Q146.43 16.38 147.42 16.38ZM157.03 17.42L155.75 17.42L155.75 7.97L156.98 7.97L156.98 10.55L156.85 10.10Q157.25 9.02 158.18 8.45Q159.12 7.88 160.51 7.88L160.51 7.88L160.51 9.13Q160.43 9.13 160.36 9.12Q160.29 9.11 160.22 9.11L160.22 9.11Q158.72 9.11 157.88 10.02Q157.03 10.93 157.03 12.60L157.03 12.60L157.03 17.42ZM172.48 17.51L172.48 17.51Q171.14 17.51 170.42 16.79Q169.70 16.07 169.70 14.76L169.70 14.76L169.70 5.89L170.98 5.89L170.98 14.69Q170.98 15.52 171.41 15.97Q171.83 16.42 172.62 16.42L172.62 16.42Q173.47 16.42 174.02 15.93L174.02 15.93L174.47 16.85Q174.10 17.19 173.57 17.35Q173.03 17.51 172.48 17.51ZM173.86 9.04L168.01 9.04L168.01 7.97L173.86 7.97L173.86 9.04ZM182.52 7.88L182.52 7.88Q183.67 7.88 184.55 8.33Q185.42 8.77 185.91 9.67Q186.41 10.57 186.41 11.93L186.41 11.93L186.41 17.42L185.13 17.42L185.13 12.06Q185.13 10.57 184.38 9.80Q183.64 9.04 182.29 9.04L182.29 9.04Q181.28 9.04 180.53 9.44Q179.78 9.85 179.38 10.61Q178.97 11.38 178.97 12.46L178.97 12.46L178.97 17.42L177.70 17.42L177.70 4.07L178.97 4.07L178.97 10.57L178.72 10.08Q179.17 9.05 180.16 8.47Q181.15 7.88 182.52 7.88ZM194.78 17.51L194.78 17.51Q193.30 17.51 192.19 16.89Q191.07 16.27 190.44 15.18Q189.81 14.09 189.81 12.69L189.81 12.69Q189.81 11.29 190.41 10.21Q191.02 9.13 192.07 8.51Q193.12 7.88 194.44 7.88L194.44 7.88Q195.77 7.88 196.80 8.49Q197.84 9.09 198.43 10.18Q199.03 11.27 199.03 12.69L199.03 12.69Q199.03 12.78 199.02 12.88Q199.01 12.98 199.01 13.09L199.01 13.09L190.78 13.09L190.78 12.13L198.32 12.13L197.82 12.51Q197.82 11.48 197.38 10.68Q196.94 9.88 196.18 9.43Q195.43 8.98 194.44 8.98L194.44 8.98Q193.46 8.98 192.69 9.43Q191.92 9.88 191.48 10.69Q191.05 11.50 191.05 12.55L191.05 12.55L191.05 12.74Q191.05 13.82 191.53 14.64Q192.01 15.46 192.86 15.92Q193.72 16.38 194.81 16.38L194.81 16.38Q195.68 16.38 196.43 16.07Q197.17 15.77 197.71 15.14L197.71 15.14L198.43 15.97Q197.80 16.72 196.86 17.12Q195.91 17.51 194.78 17.51ZM209.43 17.42L208.15 17.42L208.15 7.97L209.38 7.97L209.38 10.55L209.25 10.10Q209.65 9.02 210.58 8.45Q211.52 7.88 212.90 7.88L212.90 7.88L212.90 9.13Q212.83 9.13 212.76 9.12Q212.69 9.11 212.62 9.11L212.62 9.11Q211.12 9.11 210.28 10.02Q209.43 10.93 209.43 12.60L209.43 12.60L209.43 17.42ZM217.55 17.42L216.27 17.42L216.27 7.97L217.55 7.97L217.55 17.42ZM216.92 5.89L216.92 5.89Q216.52 5.89 216.25 5.62Q215.98 5.35 215.98 4.97L215.98 4.97Q215.98 4.59 216.25 4.33Q216.52 4.07 216.92 4.07L216.92 4.07Q217.31 4.07 217.58 4.32Q217.85 4.57 217.85 4.95L217.85 4.95Q217.85 5.35 217.59 5.62Q217.33 5.89 216.92 5.89ZM226.04 21.01L226.04 21.01Q224.75 21.01 223.56 20.63Q222.37 20.25 221.63 19.55L221.63 19.55L222.28 18.58Q222.95 19.17 223.93 19.52Q224.91 19.87 226.01 19.87L226.01 19.87Q227.81 19.87 228.65 19.04Q229.50 18.20 229.50 16.43L229.50 16.43L229.50 14.08L229.68 12.46L229.55 10.84L229.55 7.97L230.78 7.97L230.78 16.27Q230.78 18.72 229.58 19.86Q228.38 21.01 226.04 21.01ZM225.81 17.06L225.81 17.06Q224.46 17.06 223.38 16.48Q222.30 15.89 221.68 14.85Q221.06 13.81 221.06 12.46L221.06 12.46Q221.06 11.11 221.68 10.07Q222.30 9.04 223.38 8.46Q224.46 7.88 225.81 7.88L225.81 7.88Q227.07 7.88 228.08 8.41Q229.09 8.93 229.68 9.95Q230.27 10.98 230.27 12.46L230.27 12.46Q230.27 13.93 229.68 14.96Q229.09 15.98 228.08 16.52Q227.07 17.06 225.81 17.06ZM225.94 15.93L225.94 15.93Q226.98 15.93 227.79 15.49Q228.60 15.05 229.07 14.27Q229.54 13.48 229.54 12.46L229.54 12.46Q229.54 11.43 229.07 10.66Q228.60 9.88 227.79 9.44Q226.98 9.00 225.94 9.00L225.94 9.00Q224.91 9.00 224.09 9.44Q223.27 9.88 222.81 10.66Q222.35 11.43 222.35 12.46L222.35 12.46Q222.35 13.48 222.81 14.27Q223.27 15.05 224.09 15.49Q224.91 15.93 225.94 15.93ZM240.07 7.88L240.07 7.88Q241.22 7.88 242.09 8.33Q242.96 8.77 243.46 9.67Q243.95 10.57 243.95 11.93L243.95 11.93L243.95 17.42L242.68 17.42L242.68 12.06Q242.68 10.57 241.93 9.80Q241.18 9.04 239.83 9.04L239.83 9.04Q238.82 9.04 238.08 9.44Q237.33 9.85 236.93 10.61Q236.52 11.38 236.52 12.46L236.52 12.46L236.52 17.42L235.24 17.42L235.24 4.07L236.52 4.07L236.52 10.57L236.27 10.08Q236.72 9.05 237.71 8.47Q238.70 7.88 240.07 7.88ZM251.30 17.51L251.30 17.51Q249.97 17.51 249.25 16.79Q248.53 16.07 248.53 14.76L248.53 14.76L248.53 5.89L249.80 5.89L249.80 14.69Q249.80 15.52 250.23 15.97Q250.65 16.42 251.44 16.42L251.44 16.42Q252.29 16.42 252.85 15.93L252.85 15.93L253.30 16.85Q252.92 17.19 252.39 17.35Q251.86 17.51 251.30 17.51ZM252.68 9.04L246.83 9.04L246.83 7.97L252.68 7.97L252.68 9.04ZM264.67 17.51L264.67 17.51Q263.50 17.51 262.46 17.18Q261.41 16.85 260.82 16.34L260.82 16.34L261.40 15.34Q261.97 15.77 262.87 16.08Q263.77 16.40 264.76 16.40L264.76 16.40Q266.11 16.40 266.71 15.98Q267.30 15.55 267.30 14.85L267.30 14.85Q267.30 14.33 266.97 14.03Q266.63 13.73 266.09 13.58Q265.55 13.43 264.89 13.32Q264.22 13.21 263.57 13.07Q262.91 12.92 262.37 12.65Q261.83 12.37 261.50 11.88Q261.16 11.39 261.16 10.58L261.16 10.58Q261.16 9.81 261.59 9.20Q262.03 8.59 262.86 8.24Q263.70 7.88 264.91 7.88L264.91 7.88Q265.82 7.88 266.74 8.13Q267.66 8.37 268.25 8.77L268.25 8.77L267.70 9.79Q267.07 9.36 266.35 9.17Q265.63 8.98 264.91 8.98L264.91 8.98Q263.63 8.98 263.03 9.42Q262.42 9.86 262.42 10.55L262.42 10.55Q262.42 11.09 262.76 11.39Q263.09 11.70 263.64 11.87Q264.19 12.04 264.84 12.15Q265.50 12.26 266.16 12.41Q266.81 12.56 267.36 12.83Q267.91 13.09 268.25 13.56Q268.58 14.04 268.58 14.81L268.58 14.81Q268.58 15.64 268.12 16.25Q267.66 16.85 266.79 17.18Q265.91 17.51 264.67 17.51ZM276.70 17.51L276.70 17.51Q275.47 17.51 274.48 16.95Q273.49 16.38 272.91 15.31Q272.32 14.24 272.32 12.69L272.32 12.69Q272.32 11.14 272.90 10.07Q273.47 9.00 274.46 8.44Q275.45 7.88 276.70 7.88L276.70 7.88Q278.05 7.88 279.12 8.49Q280.19 9.09 280.80 10.18Q281.41 11.27 281.41 12.69L281.41 12.69Q281.41 14.13 280.80 15.21Q280.19 16.29 279.12 16.90Q278.05 17.51 276.70 17.51ZM273.10 20.92L271.82 20.92L271.82 7.97L273.04 7.97L273.04 10.82L272.92 12.71L273.10 14.62L273.10 20.92ZM276.61 16.38L276.61 16.38Q277.61 16.38 278.41 15.92Q279.20 15.46 279.67 14.63Q280.13 13.79 280.13 12.69L280.13 12.69Q280.13 11.59 279.67 10.76Q279.20 9.94 278.41 9.47Q277.61 9.00 276.61 9.00L276.61 9.00Q275.60 9.00 274.80 9.47Q274.00 9.94 273.54 10.76Q273.08 11.59 273.08 12.69L273.08 12.69Q273.08 13.79 273.54 14.63Q274.00 15.46 274.80 15.92Q275.60 16.38 276.61 16.38ZM288.77 17.51L288.77 17.51Q287.41 17.51 286.32 16.89Q285.23 16.27 284.60 15.18Q283.97 14.09 283.97 12.69L283.97 12.69Q283.97 11.27 284.60 10.19Q285.23 9.11 286.31 8.50Q287.39 7.88 288.77 7.88L288.77 7.88Q290.18 7.88 291.27 8.50Q292.36 9.11 292.98 10.19Q293.60 11.27 293.60 12.69L293.60 12.69Q293.60 14.09 292.98 15.18Q292.36 16.27 291.26 16.89Q290.16 17.51 288.77 17.51ZM288.77 16.38L288.77 16.38Q289.80 16.38 290.59 15.92Q291.38 15.46 291.84 14.63Q292.30 13.79 292.30 12.69L292.30 12.69Q292.30 11.57 291.84 10.75Q291.38 9.92 290.59 9.46Q289.80 9.00 288.79 9.00L288.79 9.00Q287.78 9.00 286.99 9.46Q286.20 9.92 285.73 10.75Q285.26 11.57 285.26 12.69L285.26 12.69Q285.26 13.79 285.73 14.63Q286.20 15.46 286.99 15.92Q287.78 16.38 288.77 16.38ZM300.10 17.51L300.10 17.51Q298.76 17.51 298.04 16.79Q297.32 16.07 297.32 14.76L297.32 14.76L297.32 5.89L298.60 5.89L298.60 14.69Q298.60 15.52 299.03 15.97Q299.45 16.42 300.24 16.42L300.24 16.42Q301.09 16.42 301.64 15.93L301.64 15.93L302.09 16.85Q301.72 17.19 301.19 17.35Q300.65 17.51 300.10 17.51ZM301.48 9.04L295.63 9.04L295.63 7.97L301.48 7.97L301.48 9.04Z" transform="translate(0, 0)"></path></g></svg> <svg y="377.6800003051758" viewBox="-0.1599999964237213 8.260000228881836 824.7699584960938 23.03999900817871" x="-124.88498718261718" height="23.03999900817871" width="824.7699584960938" style="overflow: visible;"><g fill="#FFFFFF" fill-opacity="1" style=""><path d="M4.13 30.98L-0.16 30.98L9.92 8.58L14.02 8.58L24.13 30.98L19.78 30.98L11.10 10.78L12.77 10.78L4.13 30.98ZM18.82 25.79L4.48 25.79L5.60 22.53L17.70 22.53L18.82 25.79ZM44.61 31.30L44.61 31.30Q40 31.30 37.39 28.70Q34.78 26.11 34.78 21.22L34.78 21.22L34.78 8.58L38.94 8.58L38.94 21.06Q38.94 24.51 40.43 26.08Q41.92 27.65 44.64 27.65L44.64 27.65Q47.36 27.65 48.83 26.08Q50.30 24.51 50.30 21.06L50.30 21.06L50.30 8.58L54.40 8.58L54.40 21.22Q54.40 26.11 51.79 28.70Q49.18 31.30 44.61 31.30ZM76.93 30.98L72.77 30.98L72.77 12.10L65.34 12.10L65.34 8.58L84.35 8.58L84.35 12.10L76.93 12.10L76.93 30.98ZM105.98 31.30L105.98 31.30Q103.36 31.30 101.15 30.43Q98.94 29.57 97.31 28.02Q95.68 26.46 94.78 24.37Q93.89 22.27 93.89 19.78L93.89 19.78Q93.89 17.28 94.78 15.18Q95.68 13.09 97.31 11.54Q98.94 9.98 101.15 9.12Q103.36 8.26 105.95 8.26L105.95 8.26Q108.58 8.26 110.77 9.12Q112.96 9.98 114.59 11.54Q116.22 13.09 117.12 15.18Q118.02 17.28 118.02 19.78L118.02 19.78Q118.02 22.27 117.12 24.38Q116.22 26.50 114.59 28.03Q112.96 29.57 110.77 30.43Q108.58 31.30 105.98 31.30ZM105.95 27.65L105.95 27.65Q107.65 27.65 109.09 27.07Q110.53 26.50 111.58 25.42Q112.64 24.35 113.23 22.93Q113.82 21.50 113.82 19.78L113.82 19.78Q113.82 18.05 113.23 16.62Q112.64 15.20 111.58 14.13Q110.53 13.06 109.09 12.48Q107.65 11.90 105.95 11.90L105.95 11.90Q104.26 11.90 102.83 12.48Q101.41 13.06 100.34 14.13Q99.26 15.20 98.67 16.62Q98.08 18.05 98.08 19.78L98.08 19.78Q98.08 21.47 98.67 22.91Q99.26 24.35 100.32 25.42Q101.38 26.50 102.82 27.07Q104.26 27.65 105.95 27.65ZM134.56 30.98L130.43 30.98L130.43 8.58L133.86 8.58L147.90 25.82L146.21 25.82L146.21 8.58L150.34 8.58L150.34 30.98L146.91 30.98L132.86 13.73L134.56 13.73L134.56 30.98ZM174.85 31.30L174.85 31.30Q172.22 31.30 170.02 30.43Q167.81 29.57 166.18 28.02Q164.54 26.46 163.65 24.37Q162.75 22.27 162.75 19.78L162.75 19.78Q162.75 17.28 163.65 15.18Q164.54 13.09 166.18 11.54Q167.81 9.98 170.02 9.12Q172.22 8.26 174.82 8.26L174.82 8.26Q177.44 8.26 179.63 9.12Q181.82 9.98 183.46 11.54Q185.09 13.09 185.98 15.18Q186.88 17.28 186.88 19.78L186.88 19.78Q186.88 22.27 185.98 24.38Q185.09 26.50 183.46 28.03Q181.82 29.57 179.63 30.43Q177.44 31.30 174.85 31.30ZM174.82 27.65L174.82 27.65Q176.51 27.65 177.95 27.07Q179.39 26.50 180.45 25.42Q181.50 24.35 182.10 22.93Q182.69 21.50 182.69 19.78L182.69 19.78Q182.69 18.05 182.10 16.62Q181.50 15.20 180.45 14.13Q179.39 13.06 177.95 12.48Q176.51 11.90 174.82 11.90L174.82 11.90Q173.12 11.90 171.70 12.48Q170.27 13.06 169.20 14.13Q168.13 15.20 167.54 16.62Q166.94 18.05 166.94 19.78L166.94 19.78Q166.94 21.47 167.54 22.91Q168.13 24.35 169.18 25.42Q170.24 26.50 171.68 27.07Q173.12 27.65 174.82 27.65ZM203.26 30.98L199.30 30.98L199.30 8.58L202.72 8.58L212.51 24.93L210.72 24.93L220.35 8.58L223.78 8.58L223.81 30.98L219.87 30.98L219.84 14.75L220.67 14.75L212.48 28.42L210.62 28.42L202.30 14.75L203.26 14.75L203.26 30.98ZM248.35 31.30L248.35 31.30Q245.73 31.30 243.52 30.43Q241.31 29.57 239.68 28.02Q238.05 26.46 237.15 24.37Q236.26 22.27 236.26 19.78L236.26 19.78Q236.26 17.28 237.15 15.18Q238.05 13.09 239.68 11.54Q241.31 9.98 243.52 9.12Q245.73 8.26 248.32 8.26L248.32 8.26Q250.94 8.26 253.14 9.12Q255.33 9.98 256.96 11.54Q258.59 13.09 259.49 15.18Q260.38 17.28 260.38 19.78L260.38 19.78Q260.38 22.27 259.49 24.38Q258.59 26.50 256.96 28.03Q255.33 29.57 253.14 30.43Q250.94 31.30 248.35 31.30ZM248.32 27.65L248.32 27.65Q250.02 27.65 251.46 27.07Q252.90 26.50 253.95 25.42Q255.01 24.35 255.60 22.93Q256.19 21.50 256.19 19.78L256.19 19.78Q256.19 18.05 255.60 16.62Q255.01 15.20 253.95 14.13Q252.90 13.06 251.46 12.48Q250.02 11.90 248.32 11.90L248.32 11.90Q246.62 11.90 245.20 12.48Q243.78 13.06 242.70 14.13Q241.63 15.20 241.04 16.62Q240.45 18.05 240.45 19.78L240.45 19.78Q240.45 21.47 241.04 22.91Q241.63 24.35 242.69 25.42Q243.74 26.50 245.18 27.07Q246.62 27.65 248.32 27.65ZM282.43 31.30L282.43 31.30Q277.82 31.30 275.22 28.70Q272.61 26.11 272.61 21.22L272.61 21.22L272.61 8.58L276.77 8.58L276.77 21.06Q276.77 24.51 278.26 26.08Q279.74 27.65 282.46 27.65L282.46 27.65Q285.18 27.65 286.66 26.08Q288.13 24.51 288.13 21.06L288.13 21.06L288.13 8.58L292.22 8.58L292.22 21.22Q292.22 26.11 289.62 28.70Q287.01 31.30 282.43 31.30ZM312.99 31.30L312.99 31.30Q310.37 31.30 307.97 30.54Q305.57 29.79 304.16 28.61L304.16 28.61L305.60 25.38Q306.94 26.43 308.93 27.14Q310.91 27.84 312.99 27.84L312.99 27.84Q314.75 27.84 315.84 27.46Q316.93 27.07 317.44 26.42Q317.95 25.76 317.95 24.93L317.95 24.93Q317.95 23.90 317.22 23.28Q316.48 22.66 315.31 22.29Q314.14 21.92 312.72 21.60Q311.30 21.28 309.87 20.85Q308.45 20.42 307.28 19.73Q306.11 19.04 305.38 17.89Q304.64 16.74 304.64 14.94L304.64 14.94Q304.64 13.12 305.62 11.60Q306.59 10.08 308.59 9.17Q310.59 8.26 313.66 8.26L313.66 8.26Q315.68 8.26 317.66 8.77Q319.65 9.28 321.12 10.24L321.12 10.24L319.81 13.47Q318.30 12.58 316.70 12.14Q315.10 11.71 313.63 11.71L313.63 11.71Q311.90 11.71 310.83 12.13Q309.76 12.54 309.26 13.22Q308.77 13.89 308.77 14.75L308.77 14.75Q308.77 15.78 309.49 16.40Q310.21 17.02 311.38 17.38Q312.54 17.73 313.98 18.06Q315.42 18.40 316.85 18.82Q318.27 19.23 319.44 19.90Q320.61 20.58 321.33 21.73Q322.05 22.88 322.05 24.64L322.05 24.64Q322.05 26.43 321.07 27.95Q320.10 29.47 318.08 30.38Q316.06 31.30 312.99 31.30ZM354.98 30.98L351.01 30.98L351.01 8.58L354.43 8.58L364.22 24.93L362.43 24.93L372.06 8.58L375.49 8.58L375.52 30.98L371.58 30.98L371.55 14.75L372.38 14.75L364.19 28.42L362.34 28.42L354.02 14.75L354.98 14.75L354.98 30.98ZM400.06 31.30L400.06 31.30Q397.44 31.30 395.23 30.43Q393.02 29.57 391.39 28.02Q389.76 26.46 388.86 24.37Q387.97 22.27 387.97 19.78L387.97 19.78Q387.97 17.28 388.86 15.18Q389.76 13.09 391.39 11.54Q393.02 9.98 395.23 9.12Q397.44 8.26 400.03 8.26L400.03 8.26Q402.66 8.26 404.85 9.12Q407.04 9.98 408.67 11.54Q410.30 13.09 411.20 15.18Q412.10 17.28 412.10 19.78L412.10 19.78Q412.10 22.27 411.20 24.38Q410.30 26.50 408.67 28.03Q407.04 29.57 404.85 30.43Q402.66 31.30 400.06 31.30ZM400.03 27.65L400.03 27.65Q401.73 27.65 403.17 27.07Q404.61 26.50 405.66 25.42Q406.72 24.35 407.31 22.93Q407.90 21.50 407.90 19.78L407.90 19.78Q407.90 18.05 407.31 16.62Q406.72 15.20 405.66 14.13Q404.61 13.06 403.17 12.48Q401.73 11.90 400.03 11.90L400.03 11.90Q398.34 11.90 396.91 12.48Q395.49 13.06 394.42 14.13Q393.34 15.20 392.75 16.62Q392.16 18.05 392.16 19.78L392.16 19.78Q392.16 21.47 392.75 22.91Q393.34 24.35 394.40 25.42Q395.46 26.50 396.90 27.07Q398.34 27.65 400.03 27.65ZM434.24 30.98L429.79 30.98L422.37 8.58L426.69 8.58L433.31 28.83L431.17 28.83L438.05 8.58L441.89 8.58L448.58 28.83L446.50 28.83L453.28 8.58L457.25 8.58L449.82 30.98L445.41 30.98L439.30 12.70L440.45 12.70L434.24 30.98ZM473.28 30.98L469.12 30.98L469.12 8.58L473.28 8.58L473.28 30.98ZM491.46 30.98L487.33 30.98L487.33 8.58L490.75 8.58L504.80 25.82L503.10 25.82L503.10 8.58L507.23 8.58L507.23 30.98L503.81 30.98L489.76 13.73L491.46 13.73L491.46 30.98ZM531.71 31.30L531.71 31.30Q529.09 31.30 526.90 30.45Q524.70 29.60 523.07 28.05Q521.44 26.50 520.54 24.38Q519.65 22.27 519.65 19.78L519.65 19.78Q519.65 17.28 520.54 15.17Q521.44 13.06 523.09 11.50Q524.74 9.95 526.94 9.10Q529.15 8.26 531.78 8.26L531.78 8.26Q534.62 8.26 536.91 9.18Q539.20 10.11 540.77 11.90L540.77 11.90L538.14 14.46Q536.83 13.15 535.31 12.53Q533.79 11.90 531.97 11.90L531.97 11.90Q530.21 11.90 528.70 12.48Q527.20 13.06 526.11 14.11Q525.02 15.17 524.43 16.61Q523.84 18.05 523.84 19.78L523.84 19.78Q523.84 21.47 524.43 22.91Q525.02 24.35 526.11 25.42Q527.20 26.50 528.67 27.07Q530.14 27.65 531.94 27.65L531.94 27.65Q533.60 27.65 535.15 27.12Q536.70 26.59 538.11 25.34L538.11 25.34L540.48 28.45Q538.72 29.86 536.40 30.58Q534.08 31.30 531.71 31.30ZM540.48 28.45L536.54 27.90L536.54 19.52L540.48 19.52L540.48 28.45ZM577.73 31.30L577.73 31.30Q575.10 31.30 572.70 30.54Q570.30 29.79 568.90 28.61L568.90 28.61L570.34 25.38Q571.68 26.43 573.66 27.14Q575.65 27.84 577.73 27.84L577.73 27.84Q579.49 27.84 580.58 27.46Q581.66 27.07 582.18 26.42Q582.69 25.76 582.69 24.93L582.69 24.93Q582.69 23.90 581.95 23.28Q581.22 22.66 580.05 22.29Q578.88 21.92 577.46 21.60Q576.03 21.28 574.61 20.85Q573.18 20.42 572.02 19.73Q570.85 19.04 570.11 17.89Q569.38 16.74 569.38 14.94L569.38 14.94Q569.38 13.12 570.35 11.60Q571.33 10.08 573.33 9.17Q575.33 8.26 578.40 8.26L578.40 8.26Q580.42 8.26 582.40 8.77Q584.38 9.28 585.86 10.24L585.86 10.24L584.54 13.47Q583.04 12.58 581.44 12.14Q579.84 11.71 578.37 11.71L578.37 11.71Q576.64 11.71 575.57 12.13Q574.50 12.54 574 13.22Q573.50 13.89 573.50 14.75L573.50 14.75Q573.50 15.78 574.22 16.40Q574.94 17.02 576.11 17.38Q577.28 17.73 578.72 18.06Q580.16 18.40 581.58 18.82Q583.01 19.23 584.18 19.90Q585.34 20.58 586.06 21.73Q586.78 22.88 586.78 24.64L586.78 24.64Q586.78 26.43 585.81 27.95Q584.83 29.47 582.82 30.38Q580.80 31.30 577.73 31.30ZM609.41 31.30L609.41 31.30Q606.78 31.30 604.58 30.43Q602.37 29.57 600.74 28.02Q599.10 26.46 598.21 24.37Q597.31 22.27 597.31 19.78L597.31 19.78Q597.31 17.28 598.21 15.18Q599.10 13.09 600.74 11.54Q602.37 9.98 604.58 9.12Q606.78 8.26 609.38 8.26L609.38 8.26Q612 8.26 614.19 9.12Q616.38 9.98 618.02 11.54Q619.65 13.09 620.54 15.18Q621.44 17.28 621.44 19.78L621.44 19.78Q621.44 22.27 620.54 24.38Q619.65 26.50 618.02 28.03Q616.38 29.57 614.19 30.43Q612 31.30 609.41 31.30ZM609.38 27.65L609.38 27.65Q611.07 27.65 612.51 27.07Q613.95 26.50 615.01 25.42Q616.06 24.35 616.66 22.93Q617.25 21.50 617.25 19.78L617.25 19.78Q617.25 18.05 616.66 16.62Q616.06 15.20 615.01 14.13Q613.95 13.06 612.51 12.48Q611.07 11.90 609.38 11.90L609.38 11.90Q607.68 11.90 606.26 12.48Q604.83 13.06 603.76 14.13Q602.69 15.20 602.10 16.62Q601.50 18.05 601.50 19.78L601.50 19.78Q601.50 21.47 602.10 22.91Q602.69 24.35 603.74 25.42Q604.80 26.50 606.24 27.07Q607.68 27.65 609.38 27.65ZM649.73 30.98L633.86 30.98L633.86 8.58L638.02 8.58L638.02 27.46L649.73 27.46L649.73 30.98ZM670.66 31.30L670.66 31.30Q666.05 31.30 663.44 28.70Q660.83 26.11 660.83 21.22L660.83 21.22L660.83 8.58L664.99 8.58L664.99 21.06Q664.99 24.51 666.48 26.08Q667.97 27.65 670.69 27.65L670.69 27.65Q673.41 27.65 674.88 26.08Q676.35 24.51 676.35 21.06L676.35 21.06L676.35 8.58L680.45 8.58L680.45 21.22Q680.45 26.11 677.84 28.70Q675.23 31.30 670.66 31.30ZM702.98 30.98L698.82 30.98L698.82 12.10L691.39 12.10L691.39 8.58L710.40 8.58L710.40 12.10L702.98 12.10L702.98 30.98ZM725.70 30.98L721.54 30.98L721.54 8.58L725.70 8.58L725.70 30.98ZM750.24 31.30L750.24 31.30Q747.62 31.30 745.41 30.43Q743.20 29.57 741.57 28.02Q739.94 26.46 739.04 24.37Q738.14 22.27 738.14 19.78L738.14 19.78Q738.14 17.28 739.04 15.18Q739.94 13.09 741.57 11.54Q743.20 9.98 745.41 9.12Q747.62 8.26 750.21 8.26L750.21 8.26Q752.83 8.26 755.02 9.12Q757.22 9.98 758.85 11.54Q760.48 13.09 761.38 15.18Q762.27 17.28 762.27 19.78L762.27 19.78Q762.27 22.27 761.38 24.38Q760.48 26.50 758.85 28.03Q757.22 29.57 755.02 30.43Q752.83 31.30 750.24 31.30ZM750.21 27.65L750.21 27.65Q751.90 27.65 753.34 27.07Q754.78 26.50 755.84 25.42Q756.90 24.35 757.49 22.93Q758.08 21.50 758.08 19.78L758.08 19.78Q758.08 18.05 757.49 16.62Q756.90 15.20 755.84 14.13Q754.78 13.06 753.34 12.48Q751.90 11.90 750.21 11.90L750.21 11.90Q748.51 11.90 747.09 12.48Q745.66 13.06 744.59 14.13Q743.52 15.20 742.93 16.62Q742.34 18.05 742.34 19.78L742.34 19.78Q742.34 21.47 742.93 22.91Q743.52 24.35 744.58 25.42Q745.63 26.50 747.07 27.07Q748.51 27.65 750.21 27.65ZM778.82 30.98L774.69 30.98L774.69 8.58L778.11 8.58L792.16 25.82L790.46 25.82L790.46 8.58L794.59 8.58L794.59 30.98L791.17 30.98L777.12 13.73L778.82 13.73L778.82 30.98ZM815.55 31.30L815.55 31.30Q812.93 31.30 810.53 30.54Q808.13 29.79 806.72 28.61L806.72 28.61L808.16 25.38Q809.50 26.43 811.49 27.14Q813.47 27.84 815.55 27.84L815.55 27.84Q817.31 27.84 818.40 27.46Q819.49 27.07 820.00 26.42Q820.51 25.76 820.51 24.93L820.51 24.93Q820.51 23.90 819.78 23.28Q819.04 22.66 817.87 22.29Q816.70 21.92 815.28 21.60Q813.86 21.28 812.43 20.85Q811.01 20.42 809.84 19.73Q808.67 19.04 807.94 17.89Q807.20 16.74 807.20 14.94L807.20 14.94Q807.20 13.12 808.18 11.60Q809.15 10.08 811.15 9.17Q813.15 8.26 816.22 8.26L816.22 8.26Q818.24 8.26 820.22 8.77Q822.21 9.28 823.68 10.24L823.68 10.24L822.37 13.47Q820.86 12.58 819.26 12.14Q817.66 11.71 816.19 11.71L816.19 11.71Q814.46 11.71 813.39 12.13Q812.32 12.54 811.82 13.22Q811.33 13.89 811.33 14.75L811.33 14.75Q811.33 15.78 812.05 16.40Q812.77 17.02 813.94 17.38Q815.10 17.73 816.54 18.06Q817.98 18.40 819.41 18.82Q820.83 19.23 822.00 19.90Q823.17 20.58 823.89 21.73Q824.61 22.88 824.61 24.64L824.61 24.64Q824.61 26.43 823.63 27.95Q822.66 29.47 820.64 30.38Q818.62 31.30 815.55 31.30Z" transform="translate(0, 0)"></path></g></svg></svg>